<?xml version="1.0" encoding="UTF-8"?>
<svg id="Layer_1" xmlns="http://www.w3.org/2000/svg" viewBox="0 0 341.1 341.1">
  <path d="M170.5,0C76.5,0,0,76.5,0,170.5s76.5,170.5,170.5,170.5,170.5-76.5,170.5-170.5S264.6,0,170.5,0ZM14.7,177.8h74.7c1.3,25.2,7.4,50.2,18.3,75H38c-13.7-22-22.1-47.6-23.3-75ZM183.3,73.3V20.7c9.3,9.7,24.9,27.8,38.4,52.5h-38.4ZM228.8,87.8c9,19.8,16,43,17.6,68.8.1,2.2.2,4.5.2,6.7h-63.3v-75.5h45.6ZM168.8,73.3h-40c14.3-26.3,31-45.1,40-54.3v54.3ZM168.8,87.8v75.5h-65c0-2.2,0-4.4.2-6.6,1.6-25.8,8.6-49,17.6-68.9h47.2ZM89.5,155.7c-.2,2.5-.2,5.1-.2,7.6H14.7c1.3-27.6,9.8-53.4,23.6-75.5h67.2c-8.3,19.8-14.5,42.6-16.1,67.9ZM103.9,177.8h64.9v75h-45.2c-11.7-24.9-18.3-49.9-19.6-75ZM168.8,267.3v53.5c-15.3-17.7-27.9-35.6-37.8-53.5h37.8ZM183.3,267.3h36.1c-9.6,17.3-21.6,34.5-36.1,51.6v-51.6ZM183.3,252.8v-75h63.2c-1.4,25.1-8,50.1-19.6,75h-43.5ZM261,177.8h65.4c-1.3,27.4-9.6,53-23.3,75h-60.3c10.9-24.8,17-49.8,18.3-75ZM261.1,163.3c0-2.5,0-5.1-.2-7.6-1.5-25.3-7.8-48-16.1-67.9h57.9c13.9,22.1,22.4,47.8,23.6,75.5h-65.3ZM292.4,73.3h-54.2c-12.3-24.7-27.2-43.7-38.1-55.9,37.1,7.1,69.6,27.5,92.4,55.9ZM151.8,15.7c-11.1,12.1-26.8,31.8-39.7,57.6h-63.5c24.9-31.2,61.5-52.6,103.1-57.6ZM48.3,267.3h66.3c10.1,19.6,23.2,39.1,39.3,58.4-42.7-4.6-80.2-26.4-105.5-58.4ZM197.8,324.1c15.5-18.8,28.2-37.7,38-56.8h57c-23.2,29.3-56.7,50.1-95,56.8Z"/>
</svg>